<svg xmlns="http://www.w3.org/2000/svg" viewBox="0 0 81 76">
          <g class="header-logo__typo">
            <path fill="#00000" class="cls-1" d="M39.72,35.34l6.42,2.74L39.72,40.9Z"></path>
            <polygon class="cls-2" points="52.02 39.03 52 39.03 51.46 34.4 49.32 34.4 47.84 40.79 49.3 40.79 50.35 35.71 50.37 35.71 51.05 40.79 52.24 40.79 55.22 35.71 55.24 35.71 53.96 40.79 55.41 40.79 56.9 34.4 54.74 34.4 52.02 39.03"></polygon>
            <polygon class="cls-2" points="57.19 40.79 58.6 40.79 59.95 34.4 58.53 34.4 57.19 40.79"></polygon>
            <path class="cls-2" d="M65.72,34.76a1.44,1.44,0,0,0-.58-.29,3.19,3.19,0,0,0-.75-.08H61.46l-1.28,6.4h1.34l.51-2.5H63.3a2.19,2.19,0,0,1,.36,0,.7.7,0,0,1,.28.12.61.61,0,0,1,.18.24,1,1,0,0,1,.07.38c0,.22,0,.43,0,.65s0,.43,0,.65a1.48,1.48,0,0,0,0,.21c0,.07,0,.14.05.22h1.31a2.05,2.05,0,0,1-.07-.34,2.81,2.81,0,0,1,0-.41,3.84,3.84,0,0,1,0-.59,4.35,4.35,0,0,0,0-.51,1.85,1.85,0,0,0-.13-.7.76.76,0,0,0-.51-.43v0a1.69,1.69,0,0,0,.57-.2,1.65,1.65,0,0,0,.74-.9,1.87,1.87,0,0,0,.1-.62,2.12,2.12,0,0,0-.13-.79A1.28,1.28,0,0,0,65.72,34.76Zm-1,2a.92.92,0,0,1-.31.31,1.57,1.57,0,0,1-.44.18,2.31,2.31,0,0,1-.52.06H62.23l.36-1.8h1.28l.38,0a1.21,1.21,0,0,1,.32.11.64.64,0,0,1,.22.24,1,1,0,0,1,.08.42A.93.93,0,0,1,64.75,36.74Z"></path>
            <polygon class="cls-2" points="66.38 40.81 70.82 40.81 71.05 39.62 67.86 39.62 68.17 38.06 71.06 38.06 71.27 36.95 68.37 36.95 68.63 35.58 71.77 35.58 71.98 34.4 67.58 34.41 66.38 40.81"></polygon>
            <polygon class="cls-2" points="76.83 34.4 74.4 39.2 74.38 39.2 73.96 34.4 72.55 34.4 73.29 40.79 74.87 40.79 78.29 34.4 76.83 34.4"></polygon>
            <polygon class="cls-2" points="79.58 34.4 78.24 40.79 79.64 40.79 81 34.4 79.58 34.4"></polygon>
          </g>
          <g class="header-logo__shape">
            <path fill="#00000" class="cls-3" d="M.14,16.68,37.36,0,74.49,16.59,37.18,33.28Z"></path>
            <path fill="#00000" class="cls-4" d="M1,18.17,0,17.87V58.53l.87-.38L37.08,42V34.32Z"></path>
            <path fill="#00000" class="cls-5" d="M37.08,43.09V76L.15,59.54Z"></path>
            <path fill="#00000" class="cls-3" d="M38.29,76V43.13l36.2,16.38Z"></path>
          </g>
</svg>