<svg width="28" height="42" viewBox="0 0 28 42" fill="none" xmlns="http://www.w3.org/2000/svg">
<path fill-rule="evenodd" clip-rule="evenodd" d="M24.966 13.983V28.017C24.966 34.0827 20.0488 39 13.983 39C7.91726 39 3 34.0827 3 28.017V13.983C3 7.91726 7.91726 3 13.983 3C20.0488 3 24.966 7.91726 24.966 13.983ZM0 13.983C0 6.2604 6.26041 0 13.983 0C21.7056 0 27.966 6.2604 27.966 13.983V28.017C27.966 35.7396 21.7056 42 13.983 42C6.26041 42 0 35.7396 0 28.017V13.983ZM15.483 26.8188C15.483 25.9904 14.8114 25.3188 13.983 25.3188C13.1546 25.3188 12.483 25.9904 12.483 26.8188V34.4714C12.483 35.2999 13.1546 35.9714 13.983 35.9714C14.8114 35.9714 15.483 35.2999 15.483 34.4714V26.8188Z" fill="#F3DEDE"/>
</svg>
