<svg width="34" height="34" viewBox="0 0 34 34" fill="none" xmlns="http://www.w3.org/2000/svg">
<path d="M16.2897 9.88606C15.8755 9.88791 15.5412 10.2252 15.543 10.6394C15.5449 11.0536 15.8821 11.3879 16.2964 11.3861L18.7785 11.375C19.7859 11.3705 20.478 11.3685 21.0052 11.4261C21.1766 11.4448 21.3198 11.4689 21.4414 11.4981L10.8129 22.1265C10.52 22.4194 10.52 22.8943 10.8129 23.1872C11.1058 23.4801 11.5807 23.4801 11.8736 23.1872L22.5021 12.5587C22.5312 12.6803 22.5553 12.8235 22.574 12.9949C22.6316 13.5221 22.6297 14.2143 22.6252 15.2216L22.6141 17.7038C22.6122 18.118 22.9465 18.4553 23.3607 18.4571C23.7749 18.459 24.1122 18.1247 24.1141 17.7105L24.1253 15.1836C24.1296 14.2319 24.1331 13.4541 24.0652 12.832C23.9945 12.1852 23.839 11.6126 23.4576 11.1198C23.374 11.0117 23.2837 10.9092 23.1873 10.8128C23.0909 10.7164 22.9884 10.6261 22.8804 10.5425C22.3876 10.1612 21.8149 10.0056 21.1681 9.93497C20.5461 9.86704 19.7682 9.87053 18.8165 9.87479L16.2897 9.88606Z" fill="gray"/>
</svg>
